<?xml version="1.0" encoding="UTF-8" standalone="no"?>
<svg
   xmlns:dc="http://purl.org/dc/elements/1.1/"
   xmlns:cc="http://creativecommons.org/ns#"
   xmlns:rdf="http://www.w3.org/1999/02/22-rdf-syntax-ns#"
   xmlns:svg="http://www.w3.org/2000/svg"
   xmlns="http://www.w3.org/2000/svg"
   xmlns:sodipodi="http://sodipodi.sourceforge.net/DTD/sodipodi-0.dtd"
   xmlns:inkscape="http://www.inkscape.org/namespaces/inkscape"
   height="128"
   preserveAspectRatio="xMidYMid"
   viewBox="0 0 128 128"
   width="128"
   version="1.1"
   id="svg14"
   sodipodi:docname="icon.svg"
   inkscape:version="1.0.2 (e86c870879, 2021-01-15, custom)"
   inkscape:export-filename="C:\Users\negokaz\workspace\markdown-console\icon\icon.png"
   inkscape:export-xdpi="96"
   inkscape:export-ydpi="96">
  <metadata
     id="metadata18">
    <rdf:RDF>
      <cc:Work
         rdf:about="">
        <dc:format>image/svg+xml</dc:format>
        <dc:type
           rdf:resource="http://purl.org/dc/dcmitype/StillImage" />
        <dc:title />
      </cc:Work>
    </rdf:RDF>
  </metadata>
  <sodipodi:namedview
     pagecolor="#222d3a"
     bordercolor="#666666"
     borderopacity="1"
     objecttolerance="10"
     gridtolerance="10"
     guidetolerance="10"
     inkscape:pageopacity="0"
     inkscape:pageshadow="2"
     inkscape:window-width="1638"
     inkscape:window-height="1360"
     id="namedview16"
     showgrid="true"
     showguides="false"
     inkscape:zoom="4"
     inkscape:cx="77.672366"
     inkscape:cy="103.52322"
     inkscape:window-x="893"
     inkscape:window-y="0"
     inkscape:window-maximized="0"
     inkscape:current-layer="g12"
     inkscape:document-rotation="0">
    <inkscape:grid
       type="xygrid"
       id="grid843" />
  </sodipodi:namedview>
  <defs
     id="defs4">
    <style
       id="style2">
      .cls-1 {
        fill: #2b2b2b;
      }

      .cls-1, .cls-2, .cls-3 {
        fill-rule: evenodd;
      }

      .cls-2 {
        fill: #fff;
      }

      .cls-3 {
        fill: #58bf1a;
      }
    </style>
  </defs>
  <g
     id="g12"
     transform="matrix(2,0,0,2,15.794,0)">
    <path
       class="cls-1"
       d="m 48.903,16.4 c 0.8,0.8 1.2,1.6 1.2,2.8 V 56 c 0,4 -2,6 -6,6 h -40 c -4,0 -6,0 -6,-4 V 6 c 0,-4 2,-6 6,-6 h 27.2 c 1.2,0 2,0.8 2.8,1.6 z"
       id="path6-8"
       style="fill:#616161;fill-opacity:1;fill-rule:evenodd;stroke-width:1.03118"
       sodipodi:nodetypes="ccccccccccc" />
    <path
       class="cls-1"
       d="m 48.103,18 v 38 c 0,2.4 -1.6,4 -4,4 l -40,0 c -2.4,0 -4,-1.6 -4,-4 V 6 c 0,-2.4 1.6,-4 4,-4 h 28 z"
       id="path6"
       style="stroke-width:0.927931"
       sodipodi:nodetypes="ccccccccc" />
    <path
       class="cls-3"
       d="m 48.103,18 v 0.8 h -13.2 c -2.4,0 -3.6,-1.2 -3.6,-3.6 l 0,-13.2 h 0.8 z"
       id="path10"
       style="fill:#66bb6a;fill-opacity:1"
       sodipodi:nodetypes="ccccccc" />
    <g
       aria-label="_"
       transform="matrix(1.0381043,0,0,2.7188018,-9.4649988,-0.31999926)"
       id="text870"
       style="font-style:normal;font-weight:normal;font-size:25.4775px;line-height:1.25;font-family:sans-serif;fill:#cccccc;fill-opacity:1;stroke:none;stroke-width:0.636939">
      <path
         d="m 44.018696,16.097848 h -15.53601 v -1.267786 h 15.53601 z"
         style="fill:#ffffff;stroke-width:0.636939"
         id="path882"
         sodipodi:nodetypes="ccccc" />
    </g>
    <g
       aria-label="â¯"
       transform="matrix(1.8017933,0,0,1.5664393,-8.1209992,-0.31999926)"
       id="text866"
       style="font-style:normal;font-weight:normal;font-size:20.1705px;line-height:1.25;font-family:sans-serif;fill:#66bb6a;fill-opacity:1;stroke:none;stroke-width:0.504263">
      <path
         d="m 11.934776,21.872607 -4.4755407,-6.001343 2.9836937,-0.02335 4.138596,6.041199 -4.138596,6.074575 -2.9836937,-0.02335 z"
         style="font-style:normal;font-variant:normal;font-weight:normal;font-stretch:normal;font-family:'HackGenNerd Console';-inkscape-font-specification:'HackGenNerd Console';fill:#66bb6a;fill-opacity:1;stroke-width:0.504263"
         id="path885"
         sodipodi:nodetypes="ccccccc" />
    </g>
    <ellipse
       style="fill:#ffffff;stroke:none;stroke-width:0.562157;stroke-miterlimit:10"
       id="path848"
       cx="40.34034"
       cy="52.750797"
       rx="11.250918"
       ry="11.235405" />
    <path
       d="m 36.103,46 v 13.572412 a 0.84827587,0.84827587 0 0 0 1.292773,0.722732 l 11.027586,-6.786207 a 0.84827587,0.84827587 0 0 0 0,-1.445463 L 37.395773,45.277268 A 0.84827587,0.84827587 0 0 0 36.103,46 Z"
       stroke-width="0"
       fill="currentColor"
       id="path4"
       style="fill:#66bb6a;fill-opacity:1" />
  </g>
</svg>
